<?xml version="1.0" encoding="UTF-8"?>
<svg xmlns="http://www.w3.org/2000/svg" viewBox="0 0 1000 1000">
    <!-- Canada -->
    <path d="M100,100 L300,50 L400,150 L350,250 L200,200 Z" data-name="Canada"/>
    
    <!-- United States -->
    <path d="M200,200 L400,150 L500,250 L400,350 L200,300 Z" data-name="United States"/>
    
    <!-- Mexico -->
    <path d="M200,300 L400,250 L450,350 L250,400 L200,350 Z" data-name="Mexico"/>
    
    <!-- Guatemala -->
    <path d="M150,350 L250,300 L300,400 L200,450 L150,400 Z" data-name="Guatemala"/>
    
    <!-- Belize -->
    <path d="M100,350 L150,300 L200,400 L150,450 L100,400 Z" data-name="Belize"/>
    
    <!-- El Salvador -->
    <path d="M50,350 L100,300 L150,400 L100,450 L50,400 Z" data-name="El Salvador"/>
    
    <!-- Honduras -->
    <path d="M0,350 L50,300 L100,400 L50,450 L0,400 Z" data-name="Honduras"/>
    
    <!-- Nicaragua -->
    <path d="M0,400 L50,350 L100,450 L50,500 L0,450 Z" data-name="Nicaragua"/>
    
    <!-- Costa Rica -->
    <path d="M50,400 L100,350 L150,450 L100,500 L50,450 Z" data-name="Costa Rica"/>
    
    <!-- Panama -->
    <path d="M100,400 L150,350 L200,450 L150,500 L100,450 Z" data-name="Panama"/>
    
    <!-- Cuba -->
    <path d="M300,300 L350,250 L400,350 L350,400 L300,350 Z" data-name="Cuba"/>
    
    <!-- Jamaica -->
    <path d="M350,300 L400,250 L450,350 L400,400 L350,350 Z" data-name="Jamaica"/>
    
    <!-- Haiti -->
    <path d="M400,300 L450,250 L500,350 L450,400 L400,350 Z" data-name="Haiti"/>
    
    <!-- Dominican Republic -->
    <path d="M450,300 L500,250 L550,350 L500,400 L450,350 Z" data-name="Dominican Republic"/>
    
    <!-- Bahamas -->
    <path d="M500,300 L550,250 L600,350 L550,400 L500,350 Z" data-name="Bahamas"/>
    
    <!-- Puerto Rico -->
    <path d="M550,300 L600,250 L650,350 L600,400 L550,350 Z" data-name="Puerto Rico"/>
    
    <!-- Antigua and Barbuda -->
    <path d="M600,300 L650,250 L700,350 L650,400 L600,350 Z" data-name="Antigua and Barbuda"/>
    
    <!-- Saint Kitts and Nevis -->
    <path d="M650,300 L700,250 L750,350 L700,400 L650,350 Z" data-name="Saint Kitts and Nevis"/>
    
    <!-- Dominica -->
    <path d="M700,300 L750,250 L800,350 L750,400 L700,350 Z" data-name="Dominica"/>
    
    <!-- Saint Lucia -->
    <path d="M750,300 L800,250 L850,350 L800,400 L750,350 Z" data-name="Saint Lucia"/>
    
    <!-- Saint Vincent and the Grenadines -->
    <path d="M800,300 L850,250 L900,350 L850,400 L800,350 Z" data-name="Saint Vincent and the Grenadines"/>
    
    <!-- Barbados -->
    <path d="M850,300 L900,250 L950,350 L900,400 L850,350 Z" data-name="Barbados"/>
    
    <!-- Grenada -->
    <path d="M900,300 L950,250 L1000,350 L950,400 L900,350 Z" data-name="Grenada"/>
    
    <!-- Trinidad and Tobago -->
    <path d="M950,300 L1000,250 L1050,350 L1000,400 L950,350 Z" data-name="Trinidad and Tobago"/>
</svg> 